<?xml version="1.0" encoding="UTF-8"?>
<svg width="18px" height="17px" viewBox="0 0 18 17" version="1.1" xmlns="http://www.w3.org/2000/svg" xmlns:xlink="http://www.w3.org/1999/xlink">
    <!-- Generator: Sketch 61 (89581) - https://sketch.com -->
    <title>内部交流</title>
    <desc>Created with Sketch.</desc>
    <g id="页面-1" stroke="none" stroke-width="1" fill="none" fill-rule="evenodd">
        <g id="弹窗-新增/修改" transform="translate(-15.000000, -221.000000)">
            <g id="Repeat-Group">
                <g id="内部交流" transform="translate(15.000000, 221.000000)">
                    <rect id="矩形" x="0" y="0" width="18" height="17"></rect>
                    <g id="轴" transform="translate(2.000000, 2.833333)" fill="#DAE0EA" fill-rule="nonzero">
                        <path d="M10.3056104,8.39909237 C9.78746645,8.52225448 9.20837732,8.61532096 8.57471616,8.66578918 L8.57471616,10.3356556 C9.54663416,10.2696759 10.4487915,10.1147973 11.2511021,9.88560476 C10.7349157,9.55246572 10.37733,9.01652462 10.3056175,8.39909237 L10.3056104,8.39909237 Z M10.8984053,8.17013176 L10.8984053,8.17013157 C10.8984053,8.99980297 11.6094709,9.6723901 12.4866203,9.6723901 C13.3637639,9.6723901 14.0748353,8.9998084 14.0748353,8.17013157 C14.0748353,8.17013155 14.0748353,8.17013152 14.0748353,8.1701315 L14.0748353,8.17013147 C14.0748353,7.34046007 13.3637697,6.66787294 12.4866203,6.66787294 C11.6094766,6.66787294 10.8984053,7.34045464 10.8984053,8.17013147 C10.8984053,8.17013149 10.8984053,8.17013152 10.8984053,8.17013154 L10.8984053,8.17013176 Z M8.57471042,8.33774375 L8.57471042,1.10336498 C8.57471042,0.494036409 8.05240328,0 7.40821148,0 C6.76401824,0 6.24171397,0.494037766 6.24171397,1.10336498 L6.24171397,8.3268647 C6.63283053,8.3618224 7.04524212,8.38103749 7.4777226,8.38103749 C7.85953898,8.38103749 8.22520158,8.36575798 8.57471042,8.33774551 L8.57471042,8.33774375 Z M6.24171872,10.7634863 L6.24171872,11.1744128 C6.24171872,11.7837414 6.76402541,12.2777778 7.40821722,12.2777778 C8.05241045,12.2777778 8.57471517,11.78374 8.57471517,11.1744128 L8.57471517,10.7769137 L8.57471517,10.7769137 C8.21713518,10.8012153 7.85874636,10.8133388 7.50024424,10.8132604 C7.06923229,10.8134919 6.64923428,10.7961289 6.24171872,10.7634863 L6.24171872,10.7634863 Z M12.2403986,3.46752376 C11.7954357,3.277919 11.2834097,3.488591 11.1054744,3.88840466 C10.9050208,4.30928556 11.1277471,4.7936 11.5504373,4.96213711 C12.4100132,5.30800954 12.9988987,5.76778372 13.1814747,6.20116603 C13.9135342,6.4322102 14.4740216,7.01769304 14.6345826,7.74277634 C14.8722384,7.3554645 15,6.93805622 15,6.49888576 C14.9777273,5.29898209 13.9764384,4.18311299 12.2403929,3.46752376 L12.2403986,3.46752376 Z M1.71377386,6.49888576 C1.71377386,6.01457132 2.27009943,5.48835489 3.22708552,5.06747671 C3.64977535,4.87810391 3.85022895,4.39378946 3.62774748,3.97290857 C3.42729389,3.57286336 2.91551309,3.38349056 2.47030492,3.593931 C0.867906601,4.30952159 0,5.34111739 0,6.49889526 C0,8.48638387 2.60932716,10.0310056 6.24171684,10.322244 L6.24171684,8.65515836 C3.41431953,8.40235202 1.71377099,7.31241357 1.71377099,6.49889526 L1.71377386,6.49888576 Z M7.47773264,8.70908292 C7.04500693,8.70908292 6.632842,8.69009924 6.24172401,8.65491013 L6.24172401,10.3219958 C6.64899434,10.3546383 7.06923759,10.3717699 7.5000043,10.3717699 C7.86640117,10.3717699 8.22496639,10.3592685 8.57447523,10.3354231 L8.57447523,8.66555667 C8.22521162,8.69380056 7.85954901,8.70908007 7.47773264,8.70908007 L7.47773264,8.70908292 Z" id="形状"></path>
                    </g>
                </g>
            </g>
        </g>
    </g>
</svg>