<?xml version="1.0" encoding="UTF-8"?>
<svg width="18px" height="17px" viewBox="0 0 18 17" version="1.1" xmlns="http://www.w3.org/2000/svg" xmlns:xlink="http://www.w3.org/1999/xlink">
    <!-- Generator: Sketch 61 (89581) - https://sketch.com -->
    <title>指令</title>
    <desc>Created with Sketch.</desc>
    <g id="页面-1" stroke="none" stroke-width="1" fill="none" fill-rule="evenodd">
        <g id="弹窗-新增/修改" transform="translate(-15.000000, -263.000000)">
            <g id="Repeat-Group">
                <g id="指令" transform="translate(15.000000, 263.000000)">
                    <rect id="矩形" x="0" y="0" width="18" height="17"></rect>
                    <g id="进销存" transform="translate(3.000000, 1.888889)" fill="#DAE0EA" fill-rule="nonzero">
                        <path d="M5.3081771,5.54241168 C5.46433809,5.61955332 5.66794804,5.66666667 5.87876484,5.66666667 C6.08177418,5.66666667 6.27877739,5.62524829 6.42773153,5.55431949 L11.6873589,3.01744153 C11.8915691,2.91648428 12.0068882,2.76841339 11.9996812,2.6022226 C11.9930744,2.43654939 11.8711488,2.29417303 11.6603321,2.20512476 L6.63855173,0.100548716 L6.63855175,0.100548723 C6.46149244,0.0320818591 6.26921114,-0.00219805242 6.07517102,0.000109199974 C5.8709608,0.000109199974 5.67455804,0.0353147396 5.51839688,0.100548723 L0.347066995,2.23462522 C0.136850637,2.32367467 0.00771792626,2.46604985 0.00110964904,2.63172307 C-0.0127045931,2.78600664 0.103214931,2.94029022 0.306825393,3.04072959 L5.30817712,5.54240348 L5.3081771,5.54241168 Z" id="路径"></path>
                        <path d="M10.0451684,4.72222222 L5.95948008,7.03646299 L1.83294866,4.82240805 L0.346315795,5.54714526 C0.136085229,5.64791714 0.00694378983,5.80903452 0.000335065948,5.99651688 C-0.0068728489,6.18399924 0.10244725,6.35859263 0.30547099,6.47283952 L5.30777315,9.30383259 C5.46394469,9.39112912 5.6675684,9.44444444 5.87779897,9.44444444 C6.08142251,9.44444444 6.27843903,9.39757377 6.42740324,9.31730793 L11.6873861,6.44647654 C11.8916101,6.33222932 12.0063365,6.16408075 11.9997295,5.97659839 C12.0063368,5.78911603 11.8777956,5.62096712 11.674172,5.52019491 L10.045182,4.72222222 L10.0451684,4.72222222 Z" id="路径"></path>
                        <path d="M10.0451296,8.5 L5.95943647,10.8142346 L1.83290015,8.60078193 L0.346265528,9.32493181 C0.136034712,9.42570345 0.00689311976,9.58682048 0.000284388037,9.77430241 C-0.00632288075,9.96178435 0.102396693,10.1363774 0.306021158,10.250624 L5.30771686,13.0816107 C5.46388859,13.168907 5.66751254,13.2222222 5.87834384,13.2222222 C6.08136715,13.2222222 6.2783839,13.1753517 6.42734829,13.095086 L11.6873374,10.2242611 C11.8915616,10.1100141 12.0068887,9.9418659 11.9996812,9.75438396 C11.9930739,9.56690203 11.8711399,9.39875349 11.6675163,9.29798152 L10.045133,8.5 L10.0451296,8.5 Z" id="路径"></path>
                    </g>
                </g>
            </g>
        </g>
    </g>
</svg>