<?xml version="1.0" encoding="UTF-8"?>
<svg width="18px" height="17px" viewBox="0 0 18 17" version="1.1" xmlns="http://www.w3.org/2000/svg" xmlns:xlink="http://www.w3.org/1999/xlink">
    <!-- Generator: Sketch 61 (89581) - https://sketch.com -->
    <title>日志管理</title>
    <desc>Created with Sketch.</desc>
    <g id="页面-1" stroke="none" stroke-width="1" fill="none" fill-rule="evenodd">
        <g id="弹窗-新增/修改" transform="translate(-15.000000, -390.000000)">
            <g id="Repeat-Group">
                <g id="日志管理" transform="translate(15.000000, 390.000000)">
                    <rect id="矩形" x="0" y="0" width="18" height="17"></rect>
                    <g id="操作日志" transform="translate(3.000000, 2.833333)" fill="#DAE0EA" fill-rule="nonzero">
                        <path d="M3.00001293,0.94426785 L3.00001293,0.94426785 C3.00001276,1.98756956 3.89552469,2.83332612 5.00018939,2.83332612 L6.99982893,2.83332612 L6.99982889,2.83332612 C8.10449957,2.83332629 9,1.98756392 9,0.94426785 C9,0.94426785 9,0.94426785 9,0.94426785 L9.99982363,0.94426785 L9.99982353,0.94426785 C11.1044942,0.94426785 12,1.79003005 12,2.83332585 L12,9.44426785 L12,9.44426785 C12,10.4875768 11.1044882,11.3333333 9.99982353,11.3333333 C9.99982352,11.3333333 9.99982348,11.3333333 9.99982346,11.3333333 L2.00017654,11.3333333 L2.00017647,11.3333333 C0.895505793,11.3333333 0,10.4875711 0,9.44426785 L0,2.83332593 L0,2.83332622 C0,1.79002479 0.895511759,0.94426785 2.00017647,0.94426785 L3,0.94426785 L3.00001293,0.94426785 Z M3.00001293,0.987225307 L9.00001293,0.987225307 L3.00001293,0.987225307 Z M6.5001987,4.7223985 L6.50019872,4.7223985 C6.22410675,4.71378415 5.99289484,4.918184 5.98377445,5.17893787 C5.97465339,5.43969174 6.19107647,5.65805883 6.46716845,5.66667254 C6.47817553,5.66701597 6.48919162,5.66701597 6.50019872,5.66667254 L9.50020242,5.66667254 L9.50020244,5.66667254 C9.77629442,5.65805819 9.99271832,5.43969174 9.98359644,5.17893787 C9.97489852,4.93027982 9.7634871,4.73061357 9.50020244,4.7223985 L6.50019875,4.7223985 L6.5001987,4.7223985 Z M6.5001987,7.55573899 L6.50019868,7.55573899 C6.2241067,7.54712455 5.99289479,7.75152449 5.9837744,8.01227836 C5.97465324,8.27303223 6.19107643,8.49139932 6.4671684,8.50001303 C6.47817563,8.50035647 6.48919187,8.50035647 6.50019912,8.50001303 L9.50020282,8.50001303 L9.5002028,8.50001303 C9.77629477,8.49139859 9.99271868,8.27303223 9.9835968,8.01227836 C9.97489878,7.76362031 9.76348745,7.56395406 9.5002028,7.55573899 L6.5001991,7.55573899 L6.5001987,7.55573899 Z M3.20728363,4.91815442 L2.85382869,4.58381987 L2.85382872,4.5838199 C2.65847045,4.39931463 2.34173272,4.39931463 2.14637445,4.58381984 C1.95101618,4.76832511 1.95101618,5.06746669 2.14637438,5.25197196 C2.14637438,5.25197196 2.14637438,5.25197196 2.14637438,5.25197196 L2.85382865,5.91960994 L2.85382863,5.91960992 C3.04800863,6.10397292 3.36366803,6.10476034 3.55887566,5.92136833 C3.55949789,5.92078376 3.5601185,5.92019763 3.56073746,5.91960996 L4.97510162,4.58381986 L4.9751016,4.58381987 C5.17474191,4.4034982 5.18180406,4.1044693 4.99087592,3.91591848 C4.79994734,3.72736906 4.48332893,3.72069924 4.28368713,3.90102049 C4.27821946,3.90595907 4.27287114,3.91101417 4.26764629,3.91618189 L3.20728146,4.91763886 L3.20728363,4.91815442 Z M3.20728363,7.75149491 L2.85382869,7.41716037 L2.85382872,7.4171604 C2.65847045,7.23265513 2.34173272,7.23265513 2.14637445,7.41716033 C1.95101618,7.60166561 1.95101618,7.90080719 2.14637438,8.08531246 C2.14637438,8.08531246 2.14637438,8.08531246 2.14637438,8.08531246 L2.85382865,8.75295044 L2.85382863,8.75295042 C3.04800863,8.93731342 3.36366803,8.93810083 3.55887566,8.75470882 C3.55949789,8.75412425 3.5601185,8.75353813 3.56073746,8.75295046 L4.97510162,7.41716035 L4.9751016,7.41716036 C5.17474191,7.23683869 5.18180406,6.9378098 4.99087592,6.74925897 C4.79994734,6.56070955 4.48332893,6.55403974 4.28368713,6.73436098 C4.27821946,6.73929956 4.27287114,6.74435466 4.26764629,6.74952238 L3.20728146,7.75097935 L3.20728363,7.75149491 Z M5.00018939,0 L6.99982893,0 L6.99982889,0 C7.55216348,0 7.9999201,0.422881805 7.9999201,0.944531818 C7.9999201,1.46618183 7.55216348,1.88906364 6.99982889,1.88906364 L5.00018935,1.88906364 L5.00018931,1.88906364 C4.44785472,1.88906364 4.00009809,1.46618183 4.00009809,0.944531818 C4.00009809,0.422881805 4.44785472,0 5.00018931,0 L5.00018939,0 Z" id="形状"></path>
                    </g>
                </g>
            </g>
        </g>
    </g>
</svg>