<?xml version="1.0" encoding="UTF-8"?>
<svg width="18px" height="17px" viewBox="0 0 18 17" version="1.1" xmlns="http://www.w3.org/2000/svg" xmlns:xlink="http://www.w3.org/1999/xlink">
    <!-- Generator: Sketch 61 (89581) - https://sketch.com -->
    <title>气象站管理</title>
    <desc>Created with Sketch.</desc>
    <g id="页面-1" stroke="none" stroke-width="1" fill="none" fill-rule="evenodd">
        <g id="弹窗-新增/修改" transform="translate(-15.000000, -178.000000)">
            <g id="Repeat-Group">
                <g id="气象站管理" transform="translate(15.000000, 178.000000)">
                    <rect id="矩形" x="0" y="0" width="18" height="17"></rect>
                    <g id="气象站" transform="translate(4.000000, 0.000000)" fill-rule="nonzero">
                        <path d="M5,5.19444452 L5,5.19444445 C5,5.45524633 5.22385802,5.66666667 5.5,5.66666667 C5.77614317,5.66666667 6,5.45524521 6,5.19444445 C6,5.19444445 6,5.19444444 6,5.19444444 L6,5.19444444 C6,4.93364255 5.77614198,4.72222222 5.5,4.72222222 C5.22385683,4.72222222 5,4.93364368 5,5.19444444 L5,5.19444452 Z" id="路径" fill="#54689C"></path>
                        <path d="M6.60014314,5.21050356 L11,1.71487617 L9.23616467,0 L5.78197378,4.21741402 C6.23355452,4.34349749 6.56701901,4.73520548 6.60014821,5.21050356 L6.60014314,5.21050356 Z M5.24468015,4.19262787 L1.80056678,0 L0.0561775079,1.73541232 L4.35087034,5.13753974 L4.35087033,5.13753974 C4.41432593,4.66775339 4.77281776,4.28875772 5.24468015,4.19262299 L5.24468015,4.19262787 Z M4.35448271,5.46691984 L0,8.91651108 L1.74438927,10.6519234 L5.25116217,6.38279548 L5.25116217,6.38279547 C4.78711194,6.2916437 4.42955256,5.92642816 4.35448267,5.46691984 L4.35448271,5.46691984 Z M5.68329684,6.38421159 L9.17926637,10.6519284 L10.9445365,8.93633834 L6.58861899,5.4761221 L6.58861898,5.4761221 C6.50898821,5.93490996 6.14812689,6.29687075 5.68329684,6.38420665 L5.68329684,6.38421159 Z M3.50543036,9.54159727 L3.06479093,13.6944371 L7.87726288,13.6944371 L7.42345365,9.54159727 L5.70370039,7.17878718 L5.46774089,7.08332595 L5.29433797,7.20251126 L3.50543036,9.54159727 Z M3,14.1666667 L8,14.1666667 L8,15.1111111 L3,15.1111111 L3,14.1666667 Z" id="形状" fill="#DAE0EA"></path>
                    </g>
                </g>
            </g>
        </g>
    </g>
</svg>