<?xml version="1.0" encoding="UTF-8"?>
<svg width="18px" height="17px" viewBox="0 0 18 17" version="1.1" xmlns="http://www.w3.org/2000/svg" xmlns:xlink="http://www.w3.org/1999/xlink">
    <!-- Generator: Sketch 61 (89581) - https://sketch.com -->
    <title>订单</title>
    <desc>Created with Sketch.</desc>
    <g id="页面-1" stroke="none" stroke-width="1" fill="none" fill-rule="evenodd">
        <g id="弹窗-新增/修改" transform="translate(-15.000000, -101.000000)">
            <g id="Repeat-Group">
                <g id="订单" transform="translate(15.000000, 101.000000)">
                    <rect id="矩形" x="0" y="0" width="18" height="17"></rect>
                    <g id="网络区域" transform="translate(3.000000, 2.833333)" fill="#DAE0EA">
                        <path d="M3.81409706,0 L1.28205078,0 C0.576923077,0 0,0.601009674 0,1.33557653 L0,6.61111111 L5,5.40909176 L3.81410306,0 L3.81409706,0 Z M5.27367478,11.5505149 C4.10525412,11.3989993 3.28420093,10.8535447 2.96841636,10.0353586 C2.65262736,9.18687411 2.96841636,8.21717659 3.85262647,7.3383839 C4.04210017,7.1565657 4.32631072,7.03535404 4.57894281,7.03535404 L4.67367966,7.03535404 C4.76841651,6.88383841 4.86315336,6.73232419 4.95789021,6.61111111 L0,7.70202029 L0,11.0656569 C0,11.7323232 0.568421099,12.2777778 1.26315751,12.2777778 L6,12.2777778 C5.84210476,12.1868687 5.68421099,12.065657 5.52631575,11.9444439 C5.4,11.8535348 5.30526359,11.7020192 5.27368366,11.550505 L5.27367478,11.5505149 Z M11.6086857,0 L5,0 L6.25217306,4.72222222 L13,3.35125586 L13,1.21864628 C13,0.548396541 12.3739135,0 11.6086971,0 L11.6086857,0 Z M10.986128,9.44444444 C10.3618861,10.0111116 9.5503733,10.4777773 8.61401562,10.8777773 C7.67765355,11.2444445 6.80372049,11.4111101 6.02340902,11.4444444 C5.99219699,11.4444444 5.99219699,11.4777778 6.02340902,11.4777778 C6.55401468,11.9777778 7.24067971,12.2777778 8.02097656,12.2777778 C9.51915587,12.2444445 10.7676338,11.0444449 10.986128,9.44444444 C11.01734,9.44444444 10.986128,9.44444444 10.986128,9.44444444 L10.986128,9.44444444 Z M5.36214506,9.375191 C5.92181636,9.49984721 6.97530864,9.49984721 8.35802469,9.00122221 C9.80658488,8.50259764 10.596713,7.84815225 10.9259259,7.41185484 C11.0246914,7.28719863 11.0246914,7.10021467 10.9259259,6.97555743 C10.3333333,6.16529123 9.37859568,5.66666667 8.25925926,5.66666667 C6.48148148,5.66666667 5,7.03788605 5,8.75190919 C5,8.84540139 5,8.97005717 5.03292176,9.06354936 C5.06584352,9.21937018 5.19753133,9.34402596 5.36213935,9.37518954 L5.36214506,9.375191 Z M10.159747,5.66666667 C10.0559621,5.66666667 10.0213672,5.75826264 10.090557,5.81931947 C10.2981267,5.97196083 10.5056964,6.12460075 10.7132662,6.30776981 C10.7478611,6.33829794 10.7824561,6.36882621 10.8516459,6.39935434 C11.09381,6.49093886 11.2667853,6.64358022 11.3359758,6.79622014 C11.6127359,7.46783954 10.3327216,8.71949522 8.04944994,9.45217145 C5.76618311,10.1848477 3.86346616,9.94062178 3.58670114,9.26900239 C3.51751118,9.08583333 3.55210624,8.84160745 3.72508089,8.597383 C3.75967579,8.5363266 3.75967579,8.50579847 3.79427085,8.44474164 C3.82886575,8.20051576 3.86346081,7.986819 3.9326506,7.74259312 C3.9672455,7.65100859 3.86346064,7.62048046 3.79427085,7.65100859 C3.1369673,8.26157259 2.86020715,8.90266428 3.06777686,9.42163802 C3.51751069,10.4901247 5.80077266,10.7038214 8.2916092,9.91008836 C10.7824457,9.11635531 12.3738081,7.65099857 11.9240792,6.55198424 C11.681915,6.06353391 11.0246099,5.75825119 10.1597366,5.66666667 L10.159747,5.66666667 Z" id="形状"></path>
                    </g>
                </g>
            </g>
        </g>
    </g>
</svg>