<?xml version="1.0" encoding="UTF-8"?>
<svg width="18px" height="17px" viewBox="0 0 18 17" version="1.1" xmlns="http://www.w3.org/2000/svg" xmlns:xlink="http://www.w3.org/1999/xlink">
    <!-- Generator: Sketch 61 (89581) - https://sketch.com -->
    <title>监控管理</title>
    <desc>Created with Sketch.</desc>
    <g id="页面-1" stroke="none" stroke-width="1" fill="none" fill-rule="evenodd">
        <g id="弹窗-新增/修改" transform="translate(-15.000000, -348.000000)">
            <g id="Repeat-Group">
                <g id="监控管理" transform="translate(15.000000, 348.000000)">
                    <rect id="矩形" x="0" y="0" width="18" height="17"></rect>
                    <g transform="translate(3.000000, 2.833333)" fill="#DAE0EA" fill-rule="nonzero" id="形状">
                        <path d="M7.41145529,4.194503 C7.01344243,3.82730201 6.54880187,3.65098082 6,3.65098082 C5.45119813,3.65098082 4.98655757,3.82730201 4.58854471,4.194503 C4.19053185,4.54876299 3.99941555,4.97743376 3.99941555,5.48375055 C3.99941555,5.99006734 4.19053185,6.41873811 4.58854471,6.7729981 C4.98480421,7.12725809 5.45119813,7.30357927 6,7.30357927 C6.54880187,7.30357927 7.01344243,7.12725809 7.41145529,6.7729981 C7.80946815,6.41873811 8.00058445,5.99006734 8.00058445,5.48375055 C8.00058445,4.97743376 7.80771479,4.54876299 7.41145529,4.194503 L7.41145529,4.194503 Z M7.41145529,4.194503 C7.01344243,3.82730201 6.54880187,3.65098082 6,3.65098082 C5.45119813,3.65098082 4.98655757,3.82730201 4.58854471,4.194503 C4.19053185,4.54876299 3.99941555,4.97743376 3.99941555,5.48375055 C3.99941555,5.99006734 4.19053185,6.41873811 4.58854471,6.7729981 C4.98480421,7.12725809 5.45119813,7.30357927 6,7.30357927 C6.54880187,7.30357927 7.01344243,7.12725809 7.41145529,6.7729981 C7.80946815,6.41873811 8.00058445,5.99006734 8.00058445,5.48375055 C8.00058445,4.97743376 7.80771479,4.54876299 7.41145529,4.194503 L7.41145529,4.194503 Z M7.41145529,4.194503 C7.01344243,3.82730201 6.54880187,3.65098082 6,3.65098082 C5.45119813,3.65098082 4.98655757,3.82730201 4.58854471,4.194503 C4.19053185,4.54876299 3.99941555,4.97743376 3.99941555,5.48375055 C3.99941555,5.99006734 4.19053185,6.41873811 4.58854471,6.7729981 C4.98480421,7.12725809 5.45119813,7.30357927 6,7.30357927 C6.54880187,7.30357927 7.01344243,7.12725809 7.41145529,6.7729981 C7.80946815,6.41873811 8.00058445,5.99006734 8.00058445,5.48375055 C8.00058445,4.97743376 7.80771479,4.54876299 7.41145529,4.194503 L7.41145529,4.194503 Z M11.1917008,8.23856683 C11.7264757,7.39254868 12,6.4818255 12,5.48375055 C12,4.4856756 11.7264757,3.57495242 11.1917008,2.72893427 C10.6569258,1.88129849 9.9170076,1.22454253 9,0.732784365 C8.08123904,0.239408579 7.0818235,0 6,0 C4.9181765,0 3.90473407,0.239408579 2.98597312,0.732784365 C2.06896552,1.22616015 1.34132086,1.88291612 0.80829924,2.72893427 C0.273524255,3.57495242 0,4.4856756 0,5.48375055 C0,6.4818255 0.273524255,7.39254868 0.80829924,8.23856683 C1.25014611,8.93899868 1.82349503,9.51002049 2.528346,9.96457327 C1.6604325,10.2104523 1.12565751,10.5469185 1.12565751,10.9189723 C1.12565751,11.6695506 3.30859147,12.2777778 6,12.2777778 C8.69140853,12.2777778 10.8743425,11.6695506 10.8743425,10.9189723 C10.8743425,10.5453008 10.3360608,10.2088347 9.4628872,9.96295564 C10.1694915,9.50840287 10.7498539,8.93899868 11.1917008,8.23856683 Z M3.71186441,3.39863124 C4.34132086,2.81790367 5.10929281,2.52673108 6,2.52673108 C6.89070719,2.52673108 7.65692577,2.81790367 8.28813559,3.39863124 C8.91759205,3.96803543 9.23319696,4.66199678 9.23319696,5.48375055 C9.23319696,6.30550432 8.91759205,7.0010833 8.28813559,7.56886986 C7.65867914,8.13827404 6.89070719,8.42782901 6,8.42782901 C5.10929281,8.42782901 4.34307423,8.13665642 3.71186441,7.56886986 C3.08240795,6.99946567 2.76680304,6.30550432 2.76680304,5.48375055 C2.76680304,4.6636144 3.08240795,3.96803543 3.71186441,3.39863124 Z"></path>
                    </g>
                </g>
            </g>
        </g>
    </g>
</svg>