<?xml version="1.0" encoding="UTF-8"?>
<svg width="18px" height="17px" viewBox="0 0 18 17" version="1.1" xmlns="http://www.w3.org/2000/svg" xmlns:xlink="http://www.w3.org/1999/xlink">
    <!-- Generator: Sketch 61 (89581) - https://sketch.com -->
    <title>系统</title>
    <desc>Created with Sketch.</desc>
    <g id="页面-1" stroke="none" stroke-width="1" fill="none" fill-rule="evenodd">
        <g id="弹窗-新增/修改" transform="translate(-15.000000, -475.000000)">
            <g id="Repeat-Group">
                <g id="系统" transform="translate(15.000000, 475.000000)">
                    <rect id="矩形" x="0" y="0" width="18" height="17"></rect>
                    <g id="系统配置" transform="translate(3.000000, 2.833333)" fill="#DAE0EA" fill-rule="nonzero">
                        <path d="M12.6258847,2.26036028 L6.56936157,4.64104927 L0.498990428,2.26036028 L6.55535353,0 L12.6258847,2.26036028 L12.6258847,2.26036028 Z M0,3.25009892 L6.04271434,5.68413849 L6.04271434,12.2777778 C5.56227767,12.0729102 5.06348652,11.8584761 4.54590452,11.6357248 C4.10253171,11.4487408 3.60115133,11.2392774 3.04219978,11.0073751 C2.48318276,10.7754448 1.92202309,10.543558 1.358296,10.3115841 C1.15508188,10.2225094 0.970191688,10.1044466 0.803863969,9.95742581 C0.637505704,9.81046252 0.49428035,9.64973696 0.37432028,9.4760689 C0.254151471,9.30202745 0.161803833,9.11696943 0.0970817177,8.9208345 C0.0323754582,8.724715 0,8.53316328 0,8.3457919 L0,3.25009892 L0,3.25009892 L0,3.25009892 Z M13,3.25010594 L13,8.31912924 C13,8.55067214 12.9538407,8.77610877 12.8614775,8.99433579 C12.7689506,9.2129362 12.6511488,9.41778837 12.5079074,9.60935553 C12.364845,9.80129469 12.2053787,9.97076837 12.0297923,10.1177611 C11.8543848,10.2651554 11.6833528,10.3786071 11.5169946,10.458991 C11.0272541,10.6550964 10.5146353,10.8599781 9.97871338,11.0739812 C9.44281328,11.2880279 8.94854747,11.4841614 8.4957225,11.6627426 C7.96906655,11.8764159 7.45174347,12.0816709 6.94347689,12.2777764 L6.94347689,5.68413709 L13,3.25010594 L13,3.25010594 Z" id="形状"></path>
                    </g>
                </g>
            </g>
        </g>
    </g>
</svg>