<?xml version="1.0" encoding="UTF-8"?>
<svg width="18px" height="17px" viewBox="0 0 18 17" version="1.1" xmlns="http://www.w3.org/2000/svg" xmlns:xlink="http://www.w3.org/1999/xlink">
    <!-- Generator: Sketch 61 (89581) - https://sketch.com -->
    <title>报表统计</title>
    <desc>Created with Sketch.</desc>
    <g id="页面-1" stroke="none" stroke-width="1" fill="none" fill-rule="evenodd">
        <g id="弹窗-新增/修改" transform="translate(-15.000000, -432.000000)">
            <g id="Repeat-Group">
                <g id="报表统计" transform="translate(15.000000, 432.000000)">
                    <rect id="矩形" x="0" y="0" width="18" height="17"></rect>
                    <g id="统计" transform="translate(3.000000, 2.833333)" fill="#DAE0EA" fill-rule="nonzero">
                        <path d="M2.6981245,11.3333333 L2.6981245,3.7932096 C2.6981245,3.49253056 2.45279158,3.26126127 2.15852402,3.26126127 L0.539600481,3.26126127 C0.245330952,3.26126127 0,3.51563743 0,3.7932096 L0,11.3333333 L2.6981245,11.3333333 L2.6981245,11.3333333 L2.6981245,11.3333333 Z M6.13209613,11.3333333 L6.13209613,0.555146192 C6.13209613,0.254444868 5.88683608,0 5.59247005,0 L3.97354651,0 C3.67927698,0 3.43394603,0.254443011 3.43394603,0.555146192 L3.43394603,11.3333333 L6.13209613,11.3333333 L6.13209613,11.3333333 L6.13209613,11.3333333 Z M9.56604807,11.3333333 L9.56604807,6.56868986 C9.56604807,6.26801082 9.32081164,6.01363466 9.02644759,6.01363466 L7.40762054,6.01363466 C7.11325648,6.01363466 6.86789993,6.26801082 6.86789993,6.56868986 L6.86789993,11.3333333 L9.56604807,11.3333333 L9.56604807,11.3333333 L9.56604807,11.3333333 Z M13,11.3333333 L13,3.7932096 C13,3.49253056 12.7547636,3.26126127 12.4603995,3.26126127 L10.8415725,3.26126127 C10.5472084,3.26126127 10.301972,3.51563743 10.301972,3.7932096 L10.301972,11.3333333 L13,11.3333333 L13,11.3333333 L13,11.3333333 Z" id="形状"></path>
                    </g>
                </g>
            </g>
        </g>
    </g>
</svg>