<?xml version="1.0" encoding="UTF-8"?>
<svg width="18px" height="18px" viewBox="0 0 18 18" version="1.1" xmlns="http://www.w3.org/2000/svg" xmlns:xlink="http://www.w3.org/1999/xlink">
    <!-- Generator: Sketch 61 (89581) - https://sketch.com -->
    <title>meteorological</title>
    <desc>Created with Sketch.</desc>
    <g id="页面-1" stroke="none" stroke-width="1" fill="none" fill-rule="evenodd">
        <g id="气象站管理" transform="translate(-15.000000, -294.000000)">
            <g id="Repeat-Group">
                <g id="编组-10" transform="translate(0.000000, 142.000000)">
                    <g id="追踪备份" transform="translate(15.000000, 152.000000)">
                        <rect id="矩形" x="0" y="0" width="18" height="18"></rect>
                        <g id="追踪" transform="translate(3.000000, 3.000000)" fill="#FFFFFF" fill-rule="nonzero">
                            <path d="M11.4779871,11.4773883 L11.4779871,10.1728664 L11.4779871,10.1728664 C11.477987,10.0287361 11.5948406,9.91189523 11.738987,9.91189523 C11.8831332,9.91189523 11.9999869,10.028736 11.9999869,10.1728664 C11.9999869,10.1728664 11.9999869,10.1728664 11.9999869,10.1728664 L11.9999869,11.7393615 L11.9999869,11.7393594 C11.999819,11.8080934 11.9725041,11.8739788 11.9239884,11.9226726 L11.9239883,11.9226726 C11.875532,11.9720323 11.8091608,11.999684 11.7399881,11.9993341 L10.1733207,11.9993341 L10.1733206,11.9993341 C10.0291744,11.9993341 9.91232075,11.88249 9.91232075,11.7383596 C9.91232075,11.5942292 10.0291743,11.4773884 10.1733206,11.4773884 L11.4786542,11.4773884 L11.4779871,11.4773883 Z M11.4779871,0.521942367 L10.1733216,0.521942367 L10.1733216,0.521942367 C10.0291754,0.52194236 9.91232169,0.405101644 9.91232169,0.260971183 C9.91232169,0.11684084 10.0291753,0 10.1733216,0 L11.739989,0 L11.739989,0 C11.8087306,0.000168354238 11.8746232,0.0274807537 11.9233224,0.0759915461 L11.9233224,0.0759915553 C11.9727895,0.12464766 12.0004464,0.191257158 11.9999945,0.260637207 L11.9999945,1.82713228 L11.9999945,1.82713228 C11.9999945,1.97126262 11.8831354,2.08810346 11.7389891,2.08810346 C11.5948429,2.08810346 11.4779892,1.97126274 11.4779892,1.82713228 L11.4779892,0.522610346 L11.4779871,0.521942367 Z M0.0780010261,11.9206743 L0.0780010446,11.9206743 C0.0291138578,11.8728806 0.00108076139,11.8077168 1.10938215e-06,11.7393615 L1.10938215e-06,10.1728664 L1.10938215e-06,10.1728664 C1.10938215e-06,10.0287361 0.116854687,9.91189525 0.261001005,9.91189525 C0.405147206,9.91189525 0.522000901,10.028736 0.522000901,10.1728664 C0.522000901,10.1728664 0.522000901,10.1728664 0.522000901,10.1728664 L0.522000901,11.4780563 L1.82666636,11.4780563 L1.82666635,11.4780563 C1.97081255,11.4780563 2.08766624,11.5948971 2.08766624,11.7390275 C2.08766624,11.8831579 1.97081267,11.9999994 1.82666635,11.9999994 L0.259998929,11.9999994 L0.259998923,11.9999994 C0.19132382,12.0001528 0.12539168,11.9730637 0.0766655269,11.9246737 L0.0780010261,11.9206743 Z M0.0780010261,0.0753399824 L0.078001011,0.0753399972 C0.126506944,0.0275195577 0.191882382,0.000681578619 0.260000665,0.000681578619 L1.82666808,0.000681578619 L1.82666807,0.000681578619 C1.97081427,0.000681578619 2.08766797,0.117522301 2.08766797,0.261652762 C2.08766797,0.405783105 1.97081439,0.522623945 1.82666807,0.522623945 L0.522002614,0.522623945 L0.522002614,1.82714588 L0.522002614,1.82714588 C0.522002614,1.97127622 0.405149037,2.08811706 0.261002718,2.08811706 C0.116856518,2.08811706 1.40291439e-06,1.97127634 1.40291439e-06,1.82714588 L1.40291439e-06,0.260650807 L1.40291439e-06,0.260651123 C-0.000224661766,0.191969161 0.0268784467,0.126017673 0.0753358588,0.0773378954 L0.0780010261,0.0753399824 Z M10.6886527,5.73937384 L11.7386518,5.73937384 L11.7386517,5.73937384 C11.8827979,5.73937383 11.9996516,5.85621456 11.9996516,6.00034502 C11.9996516,6.14447537 11.8827981,6.26131621 11.7386517,6.26131621 L10.6886527,6.26131621 L10.6886528,6.26131328 C10.5555352,8.64925908 8.64885827,10.5557157 6.26066146,10.6888292 L6.26066146,11.7387128 L6.26066146,11.7387128 C6.26066146,11.8828432 6.14380788,11.999684 5.99966156,11.999684 C5.85551536,11.999684 5.73866167,11.8828433 5.73866167,11.7387128 L5.73866167,10.6881624 L5.73866184,10.6881624 C3.35072287,10.5547313 1.44441981,8.64835791 1.31132679,6.26065821 L0.261324195,6.26065821 L0.26132421,6.26065821 C0.117178009,6.26065822 0.000324313807,6.14381749 0.000324313807,5.99968703 C0.000324313807,5.85555668 0.117177892,5.73871584 0.26132421,5.73871584 C0.261324212,5.73871584 0.261324216,5.73871584 0.261324219,5.73871584 L1.3113233,5.73871584 L1.31132335,5.73871495 C1.44477031,3.35103868 3.35135231,1.44494533 5.73931472,1.31187868 L5.73931472,0.261995108 L5.73931472,0.261995142 C5.7393147,0.117864799 5.8561683,0.00102395874 6.00032431,0.00102395874 C6.14446081,0.00102395874 6.26131451,0.117864682 6.26131451,0.261995142 C6.26131451,0.261995144 6.26131451,0.261995148 6.26131451,0.261995151 L6.26131451,1.31187872 L6.26131466,1.31187873 C8.64952319,1.44498288 10.5561896,3.35144889 10.689306,5.73938297 L10.6886527,5.73937384 Z M5.99999543,7.82580737 L5.99999535,7.82580737 C7.00846675,7.82580737 7.82599256,7.00837032 7.82599256,6.00001104 C7.82599256,4.99165059 7.00846557,4.17421471 5.99999535,4.17421471 C4.99152396,4.17421471 4.17399815,4.99165176 4.17399815,6.00001104 L4.17399815,6.00001084 C4.17399815,7.00837129 4.99152513,7.82580737 5.99999535,7.82580737 C5.99999538,7.82580737 5.99999541,7.82580737 5.99999543,7.82580737 L5.99999543,7.82580737 Z M5.99999543,7.303865 L5.99999539,7.303865 C5.27944839,7.30386488 4.69532993,6.7198108 4.69532993,5.99934307 C4.69532993,5.27887534 5.27944839,4.69482114 5.99999539,4.69482114 C6.72054239,4.69482114 7.30466085,5.27887534 7.30466085,5.99934307 C7.30466085,5.99956521 7.30466085,5.99978735 7.30466085,6.00000949 L7.30466085,6.00000946 C7.30466085,6.72047719 6.72054222,7.30453139 5.99999522,7.30453139 L5.99999543,7.303865 Z" id="形状"></path>
                        </g>
                    </g>
                </g>
            </g>
        </g>
    </g>
</svg>